<?xml version="1.0" standalone="no"?><!DOCTYPE svg PUBLIC "-//W3C//DTD SVG 1.1//EN" "http://www.w3.org/Graphics/SVG/1.1/DTD/svg11.dtd"><svg t="1622797624409" class="icon" viewBox="0 0 1024 1024" version="1.1" xmlns="http://www.w3.org/2000/svg" p-id="12391" xmlns:xlink="http://www.w3.org/1999/xlink" width="200" height="200"><defs><style type="text/css"></style></defs><path d="M864 944v64c0 8.96-7.2 16-16 16H176c-8.8 0-16-7.04-16-16v-64h704z" fill="#AC92EC" p-id="12392"></path><path d="M864 896.16V944H160v-47.84c0-11.024 1.44-21.744 4-32h696c2.56 10.24 4 20.96 4 32z" fill="#656D78" p-id="12393"></path><path d="M400 768.16s32 32 112 32 112-32 112-32V768l112 0.16a127.936 127.936 0 0 1 124 96h-696C178.24 808.8 228.32 768 288 768l112 0.16z" fill="#AC92EC" p-id="12394"></path><path d="M800 1008c0 8.96-7.2 16-16 16h64c8.8 0 16-7.04 16-16v-64h-64v64z" fill="#967ADC" p-id="12395"></path><path d="M860 864.16h-64c2.56 10.256 4 20.976 4 32V944h64v-47.84c0-11.04-1.44-21.76-4-32z" fill="#434A54" p-id="12396"></path><path d="M796 864.16h64a127.936 127.936 0 0 0-124-96L624 768v0.096l48 0.064a127.936 127.936 0 0 1 124 96z" fill="#967ADC" p-id="12397"></path><path d="M624 768v0.16s-32 32-112 32-112-32-112-32v-91.84c33.44 17.6 71.52 27.68 112 27.68s78.56-9.92 112-27.68V768z" fill="#EAC6BB" p-id="12398"></path><path d="M744.64 522.88v0.176A240.448 240.448 0 0 1 624 676.32C590.56 694.08 552.48 704 512 704s-78.56-10.08-112-27.68c-76.16-40.16-128-120.16-128-212.32v-64l64-96 408.64 218.88z" fill="#EAC6BB" p-id="12399"></path><path d="M560.16 676.32a239.856 239.856 0 0 1-80.08 25.52c10.48 1.392 21.136 2.176 32 2.176 3.568 0 7.088-0.176 10.608-0.336 1.472-0.064 2.96-0.048 4.4-0.144 2.624-0.16 5.2-0.464 7.792-0.72 2.352-0.224 4.752-0.352 7.088-0.656l2.048-0.32a238.56 238.56 0 0 0 54.656-13.968 234.8 234.8 0 0 0 46.352-24.144l0.88-0.576a240.24 240.24 0 0 0 98.72-140.112v-0.16l-58.208-31.168A239.664 239.664 0 0 1 560.16 676.32z" fill="#D3B1A9" p-id="12400"></path><path d="M336 304l-64 96v-48c0-141.28 114.56-256 256-256 141.28 0 256 114.72 256 256v192l-39.36-21.12L336 304z" fill="#656D78" p-id="12401"></path><path d="M528 96c-10.864 0-21.504 0.912-32.016 2.224C622.16 114 720 221.584 720 352v157.664l24.64 13.2L784 544V352c0-141.28-114.72-256-256-256z" fill="#434A54" p-id="12402"></path></svg>