<?xml version="1.0" standalone="no"?><!DOCTYPE svg PUBLIC "-//W3C//DTD SVG 1.1//EN" "http://www.w3.org/Graphics/SVG/1.1/DTD/svg11.dtd"><svg t="1593392695493" class="icon" viewBox="0 0 1024 1024" version="1.1" xmlns="http://www.w3.org/2000/svg" p-id="23532" xmlns:xlink="http://www.w3.org/1999/xlink" width="200" height="200"><defs><style type="text/css"></style></defs><path d="M512 911.5c-16.4 0-32.8-6.2-45.3-18.7L153.4 579.4c-24.9-24.9-44.1-54-57-86.5-12.4-31.4-18.5-64.5-18-98.4 0.5-33.9 7.5-66.7 20.9-97.7 13.9-32.1 34-60.7 59.7-84.9 49.1-46.3 114.3-70 183.5-67 63.1 2.8 122.7 27.4 169.4 69.6 46.7-42.2 106.4-66.8 169.4-69.6 69.3-3 134.4 20.8 183.5 67 25.7 24.2 45.8 52.8 59.7 84.9 13.4 31 20.4 63.8 20.9 97.7 0.5 33.9-5.5 67-18 98.4-12.9 32.5-32.1 61.6-57 86.5L557.3 892.8c-12.5 12.5-28.9 18.7-45.3 18.7zM331.3 208.7c-46.9 0-93.1 16.5-128.5 49.8-38.2 36-59.7 84.6-60.5 137-0.8 52.4 19.2 101.6 56.2 138.7L512 847.5l313.4-313.4c37-37 57-86.3 56.2-138.7-0.8-52.4-22.3-101-60.5-137-74.7-70.4-197.6-65.5-273.9 10.8l-12.6 12.6c-12.5 12.5-32.8 12.5-45.3 0l-12.6-12.6c-40.1-40.1-93.2-60.5-145.4-60.5z" fill="#444444" p-id="23533"></path><path d="M448 672c-8.2 0-16.4-3.1-22.6-9.4l-160-160c-12.5-12.5-12.5-32.8 0-45.3s32.8-12.5 45.3 0l160 160c12.5 12.5 12.5 32.8 0 45.3-6.3 6.3-14.5 9.4-22.7 9.4z" fill="#31B9F4" p-id="23534"></path></svg>